HIERARCHY
ROOT Hips
{
	OFFSET -3.958830 18.904000 13.208200
	CHANNELS 6 Xposition Yposition Zposition Zrotation Yrotation Xrotation 
	JOINT LHipJoint
	{
		OFFSET 0.000000 0.000000 0.000000
		CHANNELS 3 Zrotation Yrotation Xrotation
		JOINT LeftUpLeg
		{
			OFFSET 1.800000 -1.400000 0.085000
			CHANNELS 3 Zrotation Yrotation Xrotation
			JOINT LeftLeg
			{
				OFFSET 2.215000 -6.000000 0.000000
				CHANNELS 3 Zrotation Yrotation Xrotation
				JOINT LeftFoot
				{
					OFFSET 2.500000 -6.900000 0.000000
					CHANNELS 3 Zrotation Yrotation Xrotation
					JOINT LeftToeBase
					{
						OFFSET 0.200000 -0.500000 1.950000
						CHANNELS 3 Zrotation Yrotation Xrotation
						End Site
						{
							OFFSET 0.000000 0.000000 0.000000
						}
					}
				}
			}
		}
	}
	JOINT RHipJoint
	{
		OFFSET 0.000000 0.000000 0.000000
		CHANNELS 3 Zrotation Yrotation Xrotation
		JOINT RightUpLeg
		{
			OFFSET -1.800000 -1.400000 0.085000
			CHANNELS 3 Zrotation Yrotation Xrotation
			JOINT RightLeg
			{
				OFFSET -2.215000 -6.000000 0.000000
				CHANNELS 3 Zrotation Yrotation Xrotation
				JOINT RightFoot
				{
					OFFSET -2.500000 -6.900000 0.000000
					CHANNELS 3 Zrotation Yrotation Xrotation
					JOINT RightToeBase
					{
						OFFSET -0.200000 -0.500000 1.950000
						CHANNELS 3 Zrotation Yrotation Xrotation
						End Site
						{
							OFFSET 0.000000 0.000000 0.000000
						}
					}
				}
			}
		}
	}
	JOINT LowerBack
	{
		OFFSET 0.000000 0.000000 0.000000
		CHANNELS 3 Zrotation Yrotation Xrotation
		JOINT Spine
		{
			OFFSET -0.087000 1.940000 -0.288900
			CHANNELS 3 Zrotation Yrotation Xrotation
			JOINT Spine1
			{
				OFFSET 0.000000 1.950000 0.060000
				CHANNELS 3 Zrotation Yrotation Xrotation
				JOINT Neck
				{
					OFFSET 0.000000 0.000000 0.000000
					CHANNELS 3 Zrotation Yrotation Xrotation
					JOINT Neck1
					{
						OFFSET 0.000000 1.600000 0.340000
						CHANNELS 3 Zrotation Yrotation Xrotation
						JOINT Head
						{
							OFFSET 0.000000 1.667000 -0.240000
							CHANNELS 3 Zrotation Yrotation Xrotation
							End Site
							{
								OFFSET 0.000000 0.000000 0.000000
							}
						}
					}
				}
				JOINT LeftShoulder
				{
					OFFSET 0.000000 0.000000 0.000000
					CHANNELS 3 Zrotation Yrotation Xrotation
					JOINT LeftArm
					{
						OFFSET 2.700000 1.550000 -0.730000
						CHANNELS 3 Zrotation Yrotation Xrotation
						JOINT LeftForeArm
						{
							OFFSET 5.450000 0.000000 0.000000
							CHANNELS 3 Zrotation Yrotation Xrotation
							JOINT LeftHand
							{
								OFFSET 3.450000 0.000000 0.000000
								CHANNELS 3 Zrotation Yrotation Xrotation
								JOINT LeftHandIndex1
								{
									OFFSET 0.750000 0.000000 0.000000
									CHANNELS 3 Zrotation Yrotation Xrotation
									End Site
									{
										OFFSET 0.000000 0.000000 0.000000
									}
								}
							}
						}
					}
				}
				JOINT RightShoulder
				{
					OFFSET 0.000000 0.000000 0.000000
					CHANNELS 3 Zrotation Yrotation Xrotation
					JOINT RightArm
					{
						OFFSET -2.700000 1.550000 -0.730000
						CHANNELS 3 Zrotation Yrotation Xrotation
						JOINT RightForeArm
						{
							OFFSET -5.450000 0.000000 0.000000
							CHANNELS 3 Zrotation Yrotation Xrotation
							JOINT RightHand
							{
								OFFSET -3.450000 0.000000 0.000000
								CHANNELS 3 Zrotation Yrotation Xrotation
								JOINT RightHandIndex1
								{
									OFFSET -0.750000 0.000000 0.000000
									CHANNELS 3 Zrotation Yrotation Xrotation
									End Site
									{
										OFFSET 0.000000 0.000000 0.000000
									}
								}
							}
						}
					}
				}
			}
		}
	}
}
MOTION
Frames: 7
Frame Time: 0.016667
0.043780 17.308030 -10.326090 -3.318166 -13.681551 -2.128564 -14.749574 13.111708 2.994145 7.146357 -1.309752 -19.873727 -6.614307 5.573883 13.269124 -1.030415 3.943517 3.238167 -0.036920 -0.348730 -0.171580 18.545655 -11.432618 3.021349 0.905897 1.900270 -11.336909 5.918244 -5.661176 19.180305 -0.066479 -3.909590 3.217237 -0.009670 0.657620 0.058860 -4.356254 -0.458595 -7.542247 11.774225 2.954799 19.708250 -5.186602 5.654121 16.945906 0.313507 -3.586632 -11.381606 -11.060007 7.518667 53.518601 3.384180 0.123410 0.057990 9.423561 7.243925 4.249471 -2.078018 6.812123 5.842560 116.627972 -60.625384 -85.467518 -4.255840 2.202856 0.535850 0.359360 -0.413330 -0.008970 -10.271385 -2.689440 6.630069 6.957051 -2.561178 -0.534416 -119.346069 52.568532 -82.265651 1.725786 -1.193849 -0.511740 0.478580 0.506650 -0.248000 
0.043210 17.342640 -10.281740 -3.420905 -13.665016 -0.273872 -14.722671 13.057206 2.976193 7.125286 -1.423175 -20.415710 -7.148670 6.091097 15.108231 -0.922894 4.101084 3.173189 -0.065700 -0.343910 -0.247680 18.594660 -11.406750 3.012022 1.090148 1.779932 -12.194540 5.689256 -5.357511 17.540433 -0.012995 -3.703646 3.326919 -0.039670 0.689960 0.053210 -4.482500 -0.384115 -7.451492 12.426765 3.184799 15.432313 -5.158262 5.231250 16.851666 0.230560 -3.726919 -12.310071 -12.011435 7.953734 56.171224 4.203150 -0.725670 3.314020 11.165408 6.022048 5.011701 -2.087250 8.507973 4.899385 105.710467 -63.756005 -72.756092 -4.025321 1.550269 0.480850 0.379010 -0.425870 0.020810 -11.686837 -1.633509 7.332107 5.495269 -3.055768 -0.242603 -113.934091 53.984885 -75.489643 1.670691 -0.988787 -0.472080 0.462140 0.501290 -0.194430 
0.041260 17.378680 -10.227750 -2.967519 -13.181919 1.599956 -14.737072 12.959922 2.911572 6.286257 -1.608832 -20.339411 -7.411861 6.279675 15.673119 -0.843941 4.136833 3.198458 -0.093990 -0.320760 -0.329740 18.632778 -11.338461 2.941637 0.581395 1.662095 -13.168617 6.080195 -5.163309 15.644162 0.052283 -3.557070 3.428197 -0.037200 0.774990 0.027780 -4.556203 -0.326324 -7.193164 12.001416 3.395303 10.121618 -5.043289 4.567371 17.254633 -0.001522 -3.793659 -12.311833 -12.398708 8.324506 57.458946 4.810370 -1.281350 5.965640 12.969851 5.804811 5.245346 -5.907211 6.976230 3.093565 97.863567 -60.661342 -59.686155 -3.988183 1.792214 0.387030 0.433000 -0.475090 0.065770 -12.845596 -1.608064 7.200164 7.599816 0.515533 -0.140467 -107.933550 52.432108 -65.450392 1.587452 -0.972743 -0.457780 0.496660 0.496500 -0.129780 
0.038630 17.402260 -10.195380 -2.495166 -11.895131 2.375907 -14.801620 12.983043 2.856197 5.650434 -1.646181 -19.411515 -7.612428 6.382079 15.666326 -0.780701 4.213814 3.233156 -0.182400 -0.404570 -0.413480 18.597646 -11.248540 2.890845 0.136475 1.427158 -13.114032 6.360155 -5.049997 14.036842 0.116625 -3.494483 3.507018 -0.082260 0.873320 -0.010250 -4.431517 -0.510442 -7.047393 11.100450 3.311597 7.345189 -4.596806 4.091010 17.279884 0.083555 -3.658298 -12.581501 -12.257478 7.979154 56.689936 5.140880 -2.081530 8.945390 13.348878 4.648389 5.617589 -10.490830 2.990649 1.511361 93.315618 -52.062872 -49.062543 -4.145249 2.288125 0.322460 0.487750 -0.548150 0.082630 -13.185956 -0.661520 7.454134 10.201157 2.032536 -0.965482 -105.761491 48.105806 -58.928585 1.623225 -1.175488 -0.490570 0.541070 0.527250 -0.095180 
0.044270 17.423230 -10.171880 -2.041387 -10.287717 2.025120 -14.864407 13.047161 2.783174 5.253592 -1.474667 -17.293791 -7.856553 6.353761 14.924649 -0.781247 4.301538 3.226953 -0.189250 -0.418800 -0.405880 18.555980 -11.174854 2.841344 -0.600298 1.057295 -11.920831 6.718710 -5.071239 12.512265 0.106454 -3.542189 3.504673 -0.088030 0.908000 0.011990 -4.297913 -0.748989 -6.940264 10.486004 2.733339 6.219942 -4.284031 3.313231 17.726103 0.192436 -3.583364 -12.418119 -12.022208 7.800960 55.413199 4.848190 -1.939430 8.184300 12.576898 3.276301 5.512639 -15.081453 -3.103916 0.506445 95.146099 -37.894094 -39.881313 -4.324503 2.645977 0.321080 0.516680 -0.558840 0.072100 -12.521129 0.434467 7.410579 14.563869 5.415232 -1.996665 -107.122679 39.544705 -52.604404 1.687071 -1.471995 -0.495760 0.559920 0.550680 -0.095680 
0.046280 17.422900 -10.146080 -1.809030 -7.803903 1.021361 -14.869455 13.052152 2.707029 5.220645 -1.153896 -14.657275 -7.963628 6.195593 13.711207 -0.841714 4.309633 3.191915 -0.116830 -0.326120 -0.363030 18.562814 -11.176337 2.835495 -1.421188 0.647668 -10.100465 7.512169 -5.267558 11.295099 0.027560 -3.685502 3.438264 -0.030290 0.847570 0.026870 -4.326831 -0.758256 -6.921109 10.790919 2.064341 6.446127 -4.832319 2.748976 18.263328 0.224504 -3.349066 -12.070915 -11.042121 7.310986 54.118218 5.930570 -2.121820 3.810400 11.384100 1.531029 5.215753 -17.820063 -7.743969 -0.366355 99.732523 -26.535148 -33.537504 -4.342218 2.790460 0.385550 0.477050 -0.510990 0.050310 -11.389883 1.748058 7.218129 18.984494 8.969090 -3.108198 -111.683099 28.636142 -45.428937 1.709264 -1.696366 -0.484530 0.560210 0.550910 -0.121770 
0.064390 17.426250 -10.131880 -1.445934 -5.510280 0.371075 -14.901220 13.040126 2.678119 4.751857 -0.919556 -12.494943 -7.693740 5.853318 12.011202 -0.869747 4.235507 3.254266 -0.042110 -0.232190 -0.264880 18.541393 -11.183512 2.799870 -2.430470 0.541556 -9.559642 8.393915 -5.548406 11.386838 -0.031871 -3.795170 3.412702 0.019140 0.818790 0.019530 -4.279562 -0.732625 -6.905181 10.505321 1.350343 6.443417 -5.059542 2.079011 18.642347 0.823812 -2.699960 -11.320454 -8.958066 5.967524 52.239000 3.863450 -1.242000 -0.020690 8.703677 -0.333142 4.619503 -18.927715 -10.588240 -1.039461 106.454473 -17.745934 -28.414099 -4.335689 2.806622 0.401440 0.469350 -0.474770 0.055590 -9.792532 2.988364 6.678382 20.698262 12.806659 -3.271746 -117.438234 18.749066 -37.585574 1.700504 -1.822232 -0.479430 0.616570 0.509880 -0.141600 
